<svg xmlns="http://www.w3.org/2000/svg" width="1200" height="760" viewBox="0 0 1200 760"><rect width="100%" height="100%" x="0" y="0" fill="#fff"/><text x="90" y="32" fill="#1f2937" font-family="Arial" font-size="24">Potential impact of retention_ratio on session cost</text><line x1="164.12" x2="164.12" y1="64" y2="668" stroke="#e5e7eb" stroke-width="1"/><text x="164.12" y="690" fill="#6b7280" font-family="Arial" font-size="11" text-anchor="middle">250</text><line x1="287.65" x2="287.65" y1="64" y2="668" stroke="#e5e7eb" stroke-width="1"/><text x="287.65" y="690" fill="#6b7280" font-family="Arial" font-size="11" text-anchor="middle">500</text><line x1="411.18" x2="411.18" y1="64" y2="668" stroke="#e5e7eb" stroke-width="1"/><text x="411.18" y="690" fill="#6b7280" font-family="Arial" font-size="11" text-anchor="middle">750</text><line x1="534.71" x2="534.71" y1="64" y2="668" stroke="#e5e7eb" stroke-width="1"/><text x="534.71" y="690" fill="#6b7280" font-family="Arial" font-size="11" text-anchor="middle">1000</text><line x1="658.24" x2="658.24" y1="64" y2="668" stroke="#e5e7eb" stroke-width="1"/><text x="658.24" y="690" fill="#6b7280" font-family="Arial" font-size="11" text-anchor="middle">1250</text><line x1="781.76" x2="781.76" y1="64" y2="668" stroke="#e5e7eb" stroke-width="1"/><text x="781.76" y="690" fill="#6b7280" font-family="Arial" font-size="11" text-anchor="middle">1500</text><line x1="905.29" x2="905.29" y1="64" y2="668" stroke="#e5e7eb" stroke-width="1"/><text x="905.29" y="690" fill="#6b7280" font-family="Arial" font-size="11" text-anchor="middle">1750</text><line x1="90" x2="930" y1="668" y2="668" stroke="#e5e7eb" stroke-width="1"/><text x="78" y="672" fill="#6b7280" font-family="Arial" font-size="11" text-anchor="end">$0.00</text><line x1="90" x2="930" y1="547.2" y2="547.2" stroke="#e5e7eb" stroke-width="1"/><text x="78" y="551.2" fill="#6b7280" font-family="Arial" font-size="11" text-anchor="end">$5.00</text><line x1="90" x2="930" y1="426.4" y2="426.4" stroke="#e5e7eb" stroke-width="1"/><text x="78" y="430.4" fill="#6b7280" font-family="Arial" font-size="11" text-anchor="end">$10.00</text><line x1="90" x2="930" y1="305.6" y2="305.6" stroke="#e5e7eb" stroke-width="1"/><text x="78" y="309.6" fill="#6b7280" font-family="Arial" font-size="11" text-anchor="end">$15.00</text><line x1="90" x2="930" y1="184.8" y2="184.8" stroke="#e5e7eb" stroke-width="1"/><text x="78" y="188.8" fill="#6b7280" font-family="Arial" font-size="11" text-anchor="end">$20.00</text><line x1="90" x2="930" y1="64" y2="64" stroke="#e5e7eb" stroke-width="1"/><text x="78" y="68" fill="#6b7280" font-family="Arial" font-size="11" text-anchor="end">$25.00</text><line x1="90" x2="930" y1="668" y2="668" stroke="#111827" stroke-width="1.6"/><line x1="90" x2="90" y1="64" y2="668" stroke="#111827" stroke-width="1.6"/><text x="510" y="732" fill="#111827" font-family="Arial" font-size="14" text-anchor="middle">Session Length (seconds)</text><text x="24" y="366" fill="#111827" font-family="Arial" font-size="14" text-anchor="middle" transform="rotate(-90 24 366.00)">Cumulative Cost</text><polyline fill="none" stroke="#3b82f6" stroke-linecap="round" stroke-width="3" points="90 666.07 164.12 659.54 287.65 646.26 386.47 636.59 406.24 632.97 416.12 623.3 426 622.1 485.29 614.85 524.82 608.81 544.59 596.73 633.53 585.86 648.35 583.44 663.18 572.57 781.76 559.28 801.53 556.86 816.35 552.03 831.18 543.58 905.29 533.91 930 530.29"/><polyline fill="none" stroke="#ef4444" stroke-linecap="round" stroke-width="3" points="90 666.07 164.12 658.82 287.65 646.26 386.47 636.59 406.24 632.97 416.12 630.55 426 620.89 435.88 611.22 534.71 530.29 658.24 423.98 781.76 317.68 905.29 208.96 930 179.97"/><line x1="958" x2="974" y1="68" y2="68" stroke="#3b82f6" stroke-width="4"/><text x="984" y="72" fill="#111827" font-family="Arial" font-size="12">0.7 Retention Ratio</text><line x1="958" x2="974" y1="94" y2="94" stroke="#ef4444" stroke-width="4"/><text x="984" y="98" fill="#111827" font-family="Arial" font-size="12">1.0 Retention Ratio</text></svg>