<svg xmlns="http://www.w3.org/2000/svg" width="1280" height="720" viewBox="0 0 1280 720"><rect width="100%" height="100%" fill="#fff"/><text x="32" y="44" fill="#111827" font-family="Arial, sans-serif" font-size="28">Batch API vs Flex Processing</text><text x="32" y="74" fill="#374151" font-family="Arial, sans-serif" font-size="16">Comparison: batch vs responses (flex + 24hr cache)</text><line x1="140" x2="140" y1="100" y2="560" stroke="#111827" stroke-width="1.5"/><line x1="140" x2="1180" y1="560" y2="560" stroke="#111827" stroke-width="1.5"/><line x1="136" x2="1180" y1="100" y2="100" stroke="#e5e7eb" stroke-width="1"/><line x1="136" x2="1180" y1="215" y2="215" stroke="#e5e7eb" stroke-width="1"/><line x1="136" x2="1180" y1="330" y2="330" stroke="#e5e7eb" stroke-width="1"/><line x1="136" x2="1180" y1="445" y2="445" stroke="#e5e7eb" stroke-width="1"/><line x1="136" x2="1180" y1="560" y2="560" stroke="#e5e7eb" stroke-width="1"/><text x="90" y="104" fill="#374151" font-family="Arial, sans-serif" font-size="13">100%</text><text x="96" y="219" fill="#374151" font-family="Arial, sans-serif" font-size="13">75%</text><text x="96" y="334" fill="#374151" font-family="Arial, sans-serif" font-size="13">50%</text><text x="96" y="449" fill="#374151" font-family="Arial, sans-serif" font-size="13">25%</text><text x="101" y="564" fill="#374151" font-family="Arial, sans-serif" font-size="13">0%</text><rect width="280" height="116.585" x="260" y="100" fill="#e5e7eb" stroke="#9ca3af" stroke-width="1"/><rect width="280" height="343.415" x="260" y="216.585" fill="#16a34a" opacity=".9"/><text x="400" y="164" fill="#111827" font-family="Arial, sans-serif" font-size="16" text-anchor="middle">uncached 25.34%</text><text x="400" y="344" fill="#fff" font-family="Arial, sans-serif" font-size="17" text-anchor="middle">cached 74.66%</text><text x="400" y="586" fill="#111827" font-family="Arial, sans-serif" font-size="16" text-anchor="middle">batch</text><rect width="280" height="77.049" x="740" y="100" fill="#e5e7eb" stroke="#9ca3af" stroke-width="1"/><rect width="280" height="382.951" x="740" y="177.049" fill="#16a34a" opacity=".9"/><text x="880" y="146" fill="#111827" font-family="Arial, sans-serif" font-size="16" text-anchor="middle">uncached 16.75%</text><text x="880" y="350" fill="#fff" font-family="Arial, sans-serif" font-size="17" text-anchor="middle">cached 83.25%</text><text x="880" y="586" fill="#111827" font-family="Arial, sans-serif" font-size="16" text-anchor="middle">responses (flex + 24hr cache)</text></svg>