<svg xmlns="http://www.w3.org/2000/svg" width="1400" height="760" fill="none" viewBox="0 0 1400 760"><defs><linearGradient id="bg" x1="0" x2="1400" y1="0" y2="760" gradientUnits="userSpaceOnUse"><stop stop-color="#F8FBFF"/><stop offset="1" stop-color="#F5F7FB"/></linearGradient><filter id="shadow" width="140%" height="140%" x="-20%" y="-20%"><feDropShadow dx="0" dy="10" flood-color="#16324F" flood-opacity=".12" stdDeviation="18"/></filter><marker id="arrow-blue" markerHeight="12" markerWidth="12" orient="auto" refX="10" refY="6"><path fill="#2563EB" d="M0 0L12 6L0 12V0Z"/></marker><marker id="arrow-green" markerHeight="12" markerWidth="12" orient="auto" refX="10" refY="6"><path fill="#16A34A" d="M0 0L12 6L0 12V0Z"/></marker><marker id="arrow-slate" markerHeight="12" markerWidth="12" orient="auto" refX="10" refY="6"><path fill="#475569" d="M0 0L12 6L0 12V0Z"/></marker></defs><rect width="1400" height="760" fill="url(#bg)" rx="32"/><text x="700" y="62" fill="#0F172A" font-family="Inter, Arial, sans-serif" font-size="30" font-weight="700" text-anchor="middle">An agent improvement loop can connect feedback to code</text><circle cx="700" cy="388" r="226" stroke="#CBD5E1" stroke-width="28"/><path stroke="#2563EB" stroke-linecap="round" stroke-width="28" d="M700 162A226 226 0 0 1 895.7 275"/><path stroke="#2563EB" stroke-linecap="round" stroke-width="28" d="M895.7 275A226 226 0 0 1 895.7 501"/><path stroke="#16A34A" stroke-linecap="round" stroke-width="28" d="M895.7 501A226 226 0 0 1 700 614"/><path stroke="#16A34A" stroke-linecap="round" stroke-width="28" d="M700 614A226 226 0 0 1 504.3 501"/><path stroke="#16A34A" stroke-linecap="round" stroke-width="28" d="M504.3 501A226 226 0 0 1 504.3 275"/><path stroke="#2563EB" stroke-linecap="round" stroke-width="28" d="M504.3 275A226 226 0 0 1 700 162"/><g filter="url(#shadow)" font-family="Inter, Arial, sans-serif"><rect width="212" height="88" x="594" y="118" fill="#fff" rx="22"/><text x="700" y="153" fill="#0F172A" font-size="19" font-weight="700" text-anchor="middle">SDK traces</text><text x="700" y="179" fill="#475569" font-size="14" text-anchor="middle">Observed behavior</text><rect width="228" height="88" x="847" y="231" fill="#fff" rx="22"/><text x="961" y="266" fill="#0F172A" font-size="19" font-weight="700" text-anchor="middle">Human + LLM feedback</text><text x="961" y="292" fill="#475569" font-size="14" text-anchor="middle">Interpret traces</text><rect width="228" height="88" x="847" y="457" fill="#fff" rx="22"/><text x="961" y="492" fill="#0F172A" font-size="19" font-weight="700" text-anchor="middle">Promptfoo evals</text><text x="961" y="518" fill="#475569" font-size="14" text-anchor="middle">Generate + validate</text><rect width="212" height="88" x="594" y="570" fill="#fff" rx="22"/><text x="700" y="605" fill="#0F172A" font-size="19" font-weight="700" text-anchor="middle">HALO diagnosis</text><text x="700" y="631" fill="#475569" font-size="14" text-anchor="middle">Rank changes</text><rect width="228" height="88" x="325" y="457" fill="#fff" rx="22"/><text x="439" y="492" fill="#0F172A" font-size="19" font-weight="700" text-anchor="middle">Codex handoff</text><text x="439" y="518" fill="#475569" font-size="14" text-anchor="middle">Evidence to code</text><rect width="228" height="88" x="325" y="231" fill="#fff" rx="22"/><text x="439" y="266" fill="#0F172A" font-size="19" font-weight="700" text-anchor="middle">Harness update</text><text x="439" y="292" fill="#475569" font-size="14" text-anchor="middle">PR + validation</text></g><path stroke="#2563EB" stroke-width="4" marker-end="url(#arrow-blue)" d="M804 178C840 190 867 209 892 236"/><path stroke="#2563EB" stroke-width="4" marker-end="url(#arrow-blue)" d="M1006 319C1020 358 1020 418 1006 454"/><path stroke="#16A34A" stroke-width="4" marker-end="url(#arrow-green)" d="M894 545C866 572 838 588 804 600"/><path stroke="#16A34A" stroke-width="4" marker-end="url(#arrow-green)" d="M596 600C560 588 532 572 504 545"/><path stroke="#16A34A" stroke-width="4" marker-end="url(#arrow-green)" d="M394 454C380 418 380 358 394 319"/><path stroke="#2563EB" stroke-width="4" marker-end="url(#arrow-blue)" d="M508 236C533 209 560 190 596 178"/><rect width="266" height="108" x="66" y="580" fill="#EEF2FF" stroke="#A5B4FC" stroke-width="2" rx="22"/><text x="199" y="618" fill="#3730A3" font-family="Inter, Arial, sans-serif" font-size="19" font-weight="700" text-anchor="middle">Automation + heartbeat</text><text x="199" y="646" fill="#3730A3" font-family="Inter, Arial, sans-serif" font-size="15" text-anchor="middle">Detect new handoffs</text><text x="199" y="670" fill="#3730A3" font-family="Inter, Arial, sans-serif" font-size="15" text-anchor="middle">and trigger Codex</text><path stroke="#6366F1" stroke-dasharray="8 8" stroke-width="4" marker-end="url(#arrow-slate)" d="M332 634C362 620 388 589 418 548"/><text x="700" y="714" fill="#334155" font-family="Inter, Arial, sans-serif" font-size="18" text-anchor="middle">Human judgment enters through feedback, then keeps compounding through every later optimization cycle.</text></svg>